<svg xmlns="http://www.w3.org/2000/svg" xmlns:xlink="http://www.w3.org/1999/xlink" version="1.1" x="0px" y="0px" viewBox="0 0 432.065 307.20624999999995" style="enable-background:new 0 0 432.065 245.765;" xml:space="preserve"><g><polygon points="415.565,229.265 383.497,229.265 383.497,245.765 432.065,245.765 432.065,22.265 415.565,22.265  "/><path d="M154.113,68.907l-7.445,19.266c4.33-0.317,8.848-1.692,13.337-4.156c5.195-2.847,10.427-7.091,15.873-12.998   c0.063-0.067,0.115-0.141,0.174-0.209l-17.923-4.88C156.704,67.12,155.363,68.104,154.113,68.907z"/><ellipse transform="matrix(0.9916 -0.129 0.129 0.9916 -1.9404 15.0495)" cx="115.191" cy="22.502" rx="22.501" ry="22.5"/><path d="M104.188,138.387c-2.557,0-5.258-0.379-8.098-1.18c-2.293-0.645-4.447-0.941-6.475-0.941c-1.143,0-2.244,0.104-3.313,0.283   c1.874,8.161,3.736,19.745,3.726,33.546c0,13.827-1.846,29.87-7.344,47.083c-2.101,6.576,1.527,13.609,8.105,15.711   c1.265,0.404,2.546,0.596,3.807,0.596c5.292,0.001,10.206-3.388,11.904-8.701c6.378-19.97,8.529-38.639,8.529-54.688   c-0.009-12.864-1.377-24.037-3.065-32.958c-2.395,0.796-4.973,1.245-7.754,1.25C104.203,138.387,104.196,138.387,104.188,138.387z"/><path d="M89.615,133.265c2.321,0,4.752,0.342,7.289,1.056c2.609,0.733,5.04,1.066,7.307,1.066   c11.149,0.025,18.948-8.159,24.335-18.211c-0.053-0.042-0.105-0.082-0.158-0.123c-7.782-16.363-8.044-27.341-4.714-38.474   c1.805,1.881,3.913,3.707,6.389,5.293c1.289,0.828,2.706,1.573,4.213,2.215l1.226-11.938   c-24.147-8.523-38.626-12.246-46.631-13.867c-0.62-0.126-1.212-0.313-1.778-0.543c0.28-0.539,0.504-1.112,0.656-1.716   c0.492,0.094,0.998,0.194,1.518,0.301c0.007,0.001,0.015,0.002,0.022,0.003c10.593,2.145,27.042,6.789,51.168,15.467   c0.895,0.32,1.809,0.473,2.707,0.473c3.28,0.002,6.354-2.031,7.528-5.293c1.495-4.158-0.663-8.74-4.82-10.236   c-24.621-8.85-41.642-13.701-53.423-16.096c-0.013-0.003-0.025-0.003-0.038-0.006c-2.19-0.442-4.185-0.795-6.035-1.077   c-3.642-0.556-6.69-0.82-9.319-0.826c-2.899,0.032-5.292,0.234-7.96,1.31c-1.32,0.564-2.802,1.417-4.131,2.985   c-1.337,1.529-2.25,3.922-2.207,6.049c0.002,1.729,0.464,3.184,1.007,4.306c0.981,1.965,2.162,3.136,3.331,4.128   c0.853,0.676,1.742,1.275,2.671,1.805c-1.339,24.449,4.022,39.419,12.519,61.648c0.077,0.221,0.145,0.442,0.234,0.661v-0.003h0   c0.167,0.407,1.545,3.982,3.076,10.009C86.897,133.399,88.234,133.265,89.615,133.265z"/><path d="M113.01,136.762c2.235,1.753,5.37,4.646,8.437,8.957c5.447,7.724,11.012,19.864,11.061,39.775   c0,8.989-1.179,19.567-4.18,31.96c-1.623,6.709,2.497,13.465,9.209,15.091c0.988,0.239,1.979,0.354,2.953,0.354   c5.637,0.001,10.751-3.839,12.138-9.561c3.411-14.097,4.881-26.664,4.881-37.844c0.061-26.391-8.394-44.995-17.348-56.5   c-3.197-4.137-6.4-7.369-9.257-9.86C126.727,126.779,120.924,133.723,113.01,136.762z"/><path d="M143.33,91.265l6.951-17.991c-1.844,1.868-4.39,2.993-7.118,2.993c-1.151,0-2.29-0.199-3.384-0.594   c-0.79-0.284-1.568-0.563-2.339-0.837l-1.275,12.429l1.895,1.058c-0.109,0.605-0.24,1.299-0.395,2.069   c-0.279,1.393-0.635,3.032-1.08,4.856c-1.398,5.732-3.669,13.211-7.109,20.135c0,0-0.001,0.003-0.002,0.004   c-0.366,0.741-0.065,1.641,0.677,2.009c0.214,0.106,0.442,0.156,0.666,0.156c0.549,0,1.077-0.303,1.341-0.824   c0.002-0.003,0.004-0.005,0.005-0.008c4.474-9.021,6.988-18.747,8.25-24.794c0.156-0.748,0.291-1.433,0.41-2.061L143.33,91.265z"/><path d="M243.939,77.548l-59.822-16.289l1.051-3.859l-46.957-12.785l-2.314,8.501c3.438,1.179,6.981,2.422,10.652,3.741   c3.932,1.414,6.431,5.057,6.601,8.996l1.172-3.033l27.344,7.445l1.051-3.859l59.822,16.289l-0.547,2.01l19.906,3.018l1.278-4.693   l-18.689-7.49L243.939,77.548z"/><path d="M399.497,121.265c1.392-5.321-6.467-11.372-17.465-13.447L280.621,88.685c-10.997-2.074-11.318-0.844-0.716,2.735   l97.778,33.01C388.287,128.01,398.104,126.585,399.497,121.265z"/><path d="M367.891,70.993c12.771,7.279,23.654,19.071,28.027,33.979c1.142,4.827,1.801,4.924,1.387-0.276   c-2.058-15.855-11.638-30.546-24.523-40.759c-4.212-3.42-9.07-3.709-10.284-1.339C361.188,65.115,363.786,68.588,367.891,70.993z"/><path d="M405.228,102.865c3.225-18.274,3.801-38.43-6.066-56.519c-3.317-5.923-8.96-8.174-10.665-6.08   c-1.808,2.151,0.256,6.396,3.471,10.766c10.275,13.852,12.858,33.377,11.858,51.652   C403.313,108.676,403.929,108.862,405.228,102.865z"/><path d="M388.997,179.265c1.385,2.328,6.709,1.259,10.106-3.61c9.93-14.93,9.888-32.121,7.963-47.624   c-0.858-5.113-1.483-4.966-1.411,0.099c-0.239,15.359-3.524,31.836-13.217,42.113C389.434,173.428,387.525,176.877,388.997,179.265   z"/><path d="M392.916,136.96c-9.113,6.106-20.42,6.558-30.814,5.296c-3.392-0.446-6.348,1.242-6.605,4.009   c-0.257,2.709,2.69,4.901,6.523,4.576c11.499-1.056,23.756-4.352,31.845-12.832C396.227,135.007,395.572,134.77,392.916,136.96z"/><path d="M82.196,136.034c-0.235-0.794,0.222-1.629,1.018-1.859c0.001,0,0.001,0,0.002-0.001v-0.001   c-12.965,3.869-20.799,18.245-25.716,31.779v-32.188h-5.167v-15c0-3.039-2.46-5.499-5.499-5.501h-30   c-3.039,0.002-5.499,2.462-5.501,5.501v15H6.168v69.5H4c-2.209,0-4,1.791-4,4v21c0,2.209,1.791,4,4,4h7c2.209,0,4-1.791,4-4v-1   h33.668v1c0,2.209,1.791,4,4,4h7c2.209,0,4-1.791,4-4v-21c0-2.209-1.791-4-4-4H57.5v-27.461c1.601-5.675,3.742-11.954,6.543-17.801   c4.742-9.944,11.364-18.461,20.002-20.945C83.252,137.281,82.427,136.827,82.196,136.034z M14.168,190.265c0-1.104,0.896-2,2-2   h31.333c1.104,0,2,0.896,2,2c0,1.105-0.896,2-2,2H16.168C15.063,192.265,14.168,191.37,14.168,190.265z M21.084,156.183   c0-5.938,4.813-10.75,10.75-10.75s10.75,4.813,10.75,10.75s-4.813,10.75-10.75,10.75S21.084,162.12,21.084,156.183z    M14.168,199.265c0-1.104,0.896-2,2-2h31.333c1.104,0,2,0.896,2,2c0,1.105-0.896,2-2,2H16.168   C15.063,201.265,14.168,200.37,14.168,199.265z M14.334,118.765c0.002-1.382,1.119-2.498,2.5-2.502h30   c1.379,0.004,2.498,1.12,2.5,2.502v15h-35L14.334,118.765z M47.501,212.265H16.168c-1.104,0-2-0.895-2-2c0-1.104,0.896-2,2-2   h31.333c1.104,0,2,0.896,2,2C49.501,211.37,48.605,212.265,47.501,212.265z"/></g><text x="0" y="260.765" fill="#000000" font-size="5px" font-weight="bold" font-family="'Helvetica Neue', Helvetica, Arial-Unicode, Arial, Sans-serif">Created by Gan Khoon Lay</text><text x="0" y="265.765" fill="#000000" font-size="5px" font-weight="bold" font-family="'Helvetica Neue', Helvetica, Arial-Unicode, Arial, Sans-serif">from the Noun Project</text></svg>